<?xml version="1.0" encoding="utf-8"?>
<!-- Generator: Adobe Illustrator 24.0.0, SVG Export Plug-In . SVG Version: 6.00 Build 0)  -->
<svg version="1.1" id="aacf679f-7774-484d-919c-70dbfadaa690"
	 xmlns="http://www.w3.org/2000/svg" xmlns:xlink="http://www.w3.org/1999/xlink" x="0px" y="0px" viewBox="0 0 1114.2 608.5"
	 style="enable-background:new 0 0 1114.2 608.5;" xml:space="preserve">
<style type="text/css">
	.st0{fill:#3F3D56;}
	.st1{fill:#FFFFFF;}
	.st2{fill:#D0CDE1;}
	.st3{fill:#2F2E41;}
	.st4{fill:#FFB8B8;}
	.st5{fill:#575A89;}
	.st6{fill:#17A2B8;}
</style>
<title>design_feedback</title>
<rect x="356.3" y="63.2" class="st0" width="757.9" height="492.4"/>
<rect x="333.4" y="60.4" class="st1" width="57.9" height="497"/>
<rect x="502.4" y="197.3" class="st2" width="151.6" height="1.8"/>
<path class="st2" d="M999.4,463.7H790.9V268.9h208.5V463.7z M792.7,461.9h204.9V270.8H792.7L792.7,461.9z"/>
<rect x="894.2" y="225" transform="matrix(0.6823 -0.7311 0.7311 0.6823 16.566 770.7755)" class="st2" width="1.8" height="282.7"/>
<rect x="753.8" y="365.4" transform="matrix(0.7311 -0.6823 0.6823 0.7311 -9.2229 709.2531)" class="st2" width="282.7" height="1.8"/>
<rect x="502.4" y="332.3" class="st2" width="214" height="1.8"/>
<rect x="502.4" y="365.4" class="st2" width="214" height="1.8"/>
<rect x="502.4" y="398.5" class="st2" width="214" height="1.8"/>
<circle class="st1" cx="680.7" cy="19.4" r="19.4"/>
<circle class="st1" cx="735.3" cy="19.4" r="19.4"/>
<circle class="st1" cx="789.9" cy="19.4" r="19.4"/>
<rect y="606.2" class="st0" width="652.9" height="2.3"/>
<circle class="st3" cx="192.7" cy="213.2" r="12.8"/>
<ellipse class="st3" cx="219.7" cy="171.1" rx="36.7" ry="40.2"/>
<path class="st3" d="M193.9,344l-0.9,4.7c0,0-2.8,2.8-1.4,4.3s0.9,8,0.9,8l-2.8,18.4l-16.6,74.7c0,0-21.8,14.2-38.8,42.1
	s-17.5,35-17.5,35l18.9,8l47.3-57.2c0,0,13.2-8,18-15.1s34.1-80.4,34.1-80.4l16.6,76.6c0,0-0.9,27.9,3.3,45.9
	c2.6,11.3,4.2,22.9,4.7,34.5l22.2-2.4c0,0-1.4-67.2-3.8-74.3c0,0,9.9-81.8-9.9-114.5l-11.8-47.8l-19.9-0.9L193.9,344z"/>
<path class="st3" d="M139.5,537.5l-23.7-14.7l-10.9,20.8c0,0-24.1,14.7-18.9,25.5s9.9,13.7,9.9,13.7l3.3-1.4l6.1,11.4
	c0,0,16.1,23.2,42.1,11.4c2.5-3.4,2.5-8,0-11.4c-4.3-6.1-15.1-19.4-15.1-19.4L139.5,537.5z"/>
<path class="st3" d="M284.2,537.9l-26,1.9l2.8,21.3c0,0-12.3,30.3-3.8,32.6c6.1,1.6,12.2,2.7,18.4,3.3l0.9-3.3
	c0,0,36.4,19.9,49.7,5.2c0,0,2.8-10.4-5.2-13.7s-23.7-10.4-25.5-14.2S284.2,537.9,284.2,537.9z"/>
<circle class="st4" cx="220.8" cy="177.5" r="22.7"/>
<path class="st4" d="M203.8,191.2c0,0,2.8,18.4-11.4,25.5s37.4,15.6,37.4,15.6s-8-12.3-6.6-16.6s8.5-21.3,8.5-21.3L203.8,191.2z"/>
<path class="st5" d="M200,217.2c0,0-13.7-8-18.4-4.3s-6.1,119.7,10.9,124.4l0.5,6.1c0,0-6.1,2.8-0.5,2.8s32.2-19.4,33.1-26.5
	s28.4-8.5,28.4-8.5s7.1,30.3,9.5,29.3s2.4-21.3,1.4-24.1s10.9-11.8,7.6-17.5S260.1,274,260.1,274s0.9-12.3-11.8-23.7
	c0,0-3.7-21.1-20.6-21.4S200,217.2,200,217.2z"/>
<polygon class="st3" points="198.2,149.9 198.2,175.8 204.2,175.8 211.9,167.6 210.9,175.8 237.4,175.8 235.8,167.6 239.1,175.8 
	243.3,175.8 243.3,149.9 "/>
<rect x="57.8" y="382.4" class="st6" width="196" height="179"/>
<path class="st0" d="M173.9,475.6c-16.5,27-10.8,60.5-10.8,60.5s32.5-10.2,49-37.2s10.8-60.5,10.8-60.5S190.4,448.6,173.9,475.6z"/>
<path class="st1" d="M162.4,536.4l-0.9-0.1c-0.3-0.1-34.2-5.7-54.4-29.9c-20.3-24.2-19.8-58.5-19.8-58.8l0-1l0.9,0.1
	c0.3,0.1,34.2,5.7,54.4,29.9l0,0c20.3,24.2,19.8,58.5,19.8,58.8L162.4,536.4z"/>
<circle class="st0" cx="164.1" cy="430.5" r="18.3"/>
<path class="st4" d="M164.5,332.6l5.7,42.1c0,0-3.3,36.9,9.5,37.4s4.7-37.8,4.7-37.8L183,336C183,336,172.6,318.9,164.5,332.6z"/>
<path class="st5" d="M185.8,215.8c0,0-3.3-9-10.4-1.9s-13.2,25.5-13.2,36.9c0,11.4,1.4,77.1,1.4,77.1s-7.6,2.8-2.4,7.1
	s12.3-2.4,12.3-2.4s9.5,6.6,10.4,6.6s0.5-8,0.5-8s4.7-12.3,3.8-21.8S185.8,215.8,185.8,215.8z"/>
<path class="st2" d="M999.4,171.6H501.5v-34h497.9V171.6z M503.3,169.7h494.2v-30.3H503.3V169.7z"/>
<path class="st1" d="M109.8,431.4h-49c3.8-15.2,3.3-31.7,0-49h49C103,398.7,103,415.1,109.8,431.4z"/>
<rect x="68.2" y="392.8" class="st0" width="29.7" height="5.9"/>
<rect x="68.2" y="404.7" class="st0" width="29.7" height="5.9"/>
<rect x="68.2" y="416.6" class="st0" width="29.7" height="5.9"/>
<path class="st1" d="M550.8,239.4h-49c3.8-15.2,3.3-31.7,0-49h49C544,206.7,544,223.1,550.8,239.4z"/>
<rect x="509.2" y="200.8" class="st0" width="29.7" height="5.9"/>
<rect x="509.2" y="212.7" class="st0" width="29.7" height="5.9"/>
<rect x="509.2" y="224.6" class="st0" width="29.7" height="5.9"/>
<path class="st1" d="M919.8,313.4h-49c3.8-15.2,3.3-31.7,0-49h49C913,280.7,913,297.1,919.8,313.4z"/>
<rect x="878.2" y="274.8" class="st0" width="29.7" height="5.9"/>
<rect x="878.2" y="286.7" class="st0" width="29.7" height="5.9"/>
<rect x="878.2" y="298.6" class="st0" width="29.7" height="5.9"/>
<path class="st1" d="M982.8,208.4h-49c3.8-15.2,3.3-31.7,0-49h49C976,175.7,976,192.1,982.8,208.4z"/>
<rect x="941.2" y="169.8" class="st0" width="29.7" height="5.9"/>
<rect x="941.2" y="181.7" class="st0" width="29.7" height="5.9"/>
<rect x="941.2" y="193.6" class="st0" width="29.7" height="5.9"/>
<path class="st0" d="M375.3,263.9h-26v-26h26V263.9z M351.3,261.9h22v-22h-22V261.9z"/>
<path class="st0" d="M375.8,321.9h-26v-26h26V321.9z M351.8,319.9h22v-22h-22V319.9z"/>
<path class="st0" d="M376.3,379.9h-26v-26h26V379.9z M352.3,377.9h22v-22h-22V377.9z"/>
<circle class="st1" cx="350.8" cy="354.4" r="8"/>
</svg>
