<?xml version="1.0" encoding="utf-8"?>
<!-- Generator: Adobe Illustrator 24.0.0, SVG Export Plug-In . SVG Version: 6.00 Build 0)  -->
<svg version="1.1" id="b1d7f725-135f-4616-be58-aeb0ca4fa5a4"
	 xmlns="http://www.w3.org/2000/svg" xmlns:xlink="http://www.w3.org/1999/xlink" x="0px" y="0px" viewBox="0 0 954.1 712.3"
	 style="enable-background:new 0 0 954.1 712.3;" xml:space="preserve">
<style type="text/css">
	.st0{fill:#F2F2F2;}
	.st1{fill:#3F3D56;}
	.st2{fill:#D0CDE1;}
	.st3{fill:#A0616A;}
	.st4{opacity:0.1;enable-background:new    ;}
	.st5{fill:#17A2B8;}
	.st6{opacity:0.2;enable-background:new    ;}
	.st7{fill:#2F2E41;}
</style>
<title>online_media</title>
<rect x="308.3" y="245.9" class="st0" width="480" height="379"/>
<path class="st1" d="M721.3,580.9h-482v-381h482V580.9z M241.3,578.9h478v-377h-478V578.9z"/>
<rect x="21.5" y="698.2" class="st1" width="556.1" height="2.4"/>
<polygon class="st2" points="413.3,503.2 413,305.2 637.1,403.9 "/>
<path class="st3" d="M367.7,313.9c0,0,21.1-23.7,25.5-14.7S371.8,322,371.8,322L367.7,313.9z"/>
<path class="st2" d="M378.8,323.6c0,0-9.4,3.5-12.1,7.6c-2.7,4.2-11.8,8.6-11.8,8.6l-0.8,0.5l-8.5,5.1l-11.2,6.7L299,373.2
	l-46.8,18.7c-0.4-6.5-0.7-13.1-1-19.2c-0.1-1.9-0.1-3.7-0.1-5.5c0.6-0.2,1.2-0.3,1.8-0.5c13.8-3,19.7-7.2,19.7-7.2l27-16.3
	c0,0,21.2-13.5,34.7-19.9c1.9-0.9,3.6-1.6,5.1-2.2c12.2-4.5,31.9-11.7,31.9-11.7l0.2,0.5l4.9,9.5L378.8,323.6z"/>
<path class="st4" d="M378.8,323.6c0,0-9.4,3.5-12.1,7.6c-2.7,4.2-11.8,8.6-11.8,8.6l-0.8,0.5l-8.5,5.1l-11.2,6.7L299,373.2
	l-46.8,18.7c-0.4-6.5-0.7-13.1-1-19.2c-0.1-1.9-0.1-3.7-0.1-5.5c0.6-0.2,1.2-0.3,1.8-0.5c13.8-3,19.7-7.2,19.7-7.2l27-16.3
	c0,0,21.2-13.5,34.7-19.9c1.9-0.9,3.6-1.6,5.1-2.2c12.2-4.5,31.9-11.7,31.9-11.7l0.2,0.5l4.9,9.5L378.8,323.6z"/>
<polygon class="st5" points="371.4,503 371.1,305 595.3,403.7 "/>
<polygon class="st6" points="580.9,397.4 371.4,490.4 371.4,503 595.3,403.7 "/>
<polygon class="st3" points="308.8,666.4 308.8,687.4 324.8,687.4 322.8,665.4 "/>
<polygon class="st3" points="246.8,665.4 241.8,689.4 261.8,690.4 261.8,665.4 "/>
<path class="st7" d="M254.8,475.4c0,0-5-2-6,16s-2,80-2,80s-10,55-6,71s4,27,4,27h18l1-10l1-27c0,0,10-25,7-48l24-73l12,78
	c0,0-5,19-4,39s1,46,1,46l20-2l16-94c0,0,9-94,0-99S254.8,475.4,254.8,475.4z"/>
<path class="st7" d="M314.8,680.4c0,0-9-12-13-3s-13,21-6,27s16,8,19,6s34-18,34-18s6-17-6-18s-16-4-16-4L314.8,680.4z"/>
<path class="st7" d="M245.8,683.4c0,0,0-10-4-7s-7,16-7,16s-24,19-1,19s38,4,36-5s-5-24-5-24S254.8,669.4,245.8,683.4z"/>
<circle class="st3" cx="308.8" cy="277.4" r="25"/>
<path class="st3" d="M289.3,285.9c0,0-4,29-10,33s40,5,40,5s-3-23,0-29L289.3,285.9z"/>
<path class="st3" d="M367.8,484.4c0,0,15,28,5,29s-14-28-14-28L367.8,484.4z"/>
<path class="st7" d="M285.7,295.5c7.8,3.8,17.2,1.7,22.7-5c3.4-4.4,5.3-10.8,10.7-12.2c3.5-0.9,7.5,0.8,10.7-1
	c5.8-3.4,1.7-14.1,7.2-18.1c-4.8-0.1-8.8-3.8-9.1-8.6c-0.1,1.9-2.6,2.7-4.4,2.2s-3.2-1.9-4.9-2.8c-2.9-1.5-6.4-1.2-9.7-0.9
	c-8.3,0.8-17.3,1.8-23.5,7.6c-5.8,5.4-7.7,14-6.6,21.7s3.1,10.4,7.3,17L285.7,295.5z"/>
<path class="st2" d="M347.8,329.4l-0.1,1l-2,15l-8.4,61.7l-0.5,3.3c0,0,1,2.4,2.2,6.3c2.1,6.5,4.9,17,5,26.9c0,1.9-0.1,3.9-0.3,5.8
	c-1.5,12.8-1.9,25.5-2,31.1c0,1.9,0,2.9,0,2.9l-91-3c0.6-1.3,1.1-2.6,1.5-3.9c3.3-9.7,4.5-19.9,3.5-30.1c-0.9-8.5-2.3-31.5-3.5-54.5
	c-0.4-6.5-0.7-13.1-1-19.2c-0.1-1.9-0.1-3.7-0.1-5.5c0.5-21.8,10.6-42.2,27.7-55.8c0,0,1.8,0.1,4.7,0.3c9.1,0.5,28.8,1.9,34.9,4.2
	c0.3,0.1,0.6,0.2,0.8,0.4c3,1.5,9.2,4.4,15.1,7.1C341.3,326.4,347.8,329.4,347.8,329.4z"/>
<path class="st2" d="M333.8,330.4h14c0,0,12,14,10,28s0,21,0,21l6,31c0,0,7,32,7,45v34l-16,2c0,0,0-10-3-14s-4-14-4-14l-12-64
	L333.8,330.4z"/>
<rect x="104.8" y="317" transform="matrix(0.9327 -0.3607 0.3607 0.9327 -111.6261 65.7224)" class="st5" width="30.9" height="29.8"/>
<path class="st1" d="M134.8,338l-30.3,11.7l-11.3-29.3l30.3-11.7L134.8,338z M105.4,347.7l27.3-10.6l-10.2-26.4l-27.3,10.6
	L105.4,347.7z"/>
<rect x="841" y="96.5" transform="matrix(0.9457 -0.3251 0.3251 0.9457 10.1033 284.3642)" class="st5" width="29.8" height="30.9"/>
<path class="st1" d="M849.2,126.3l-10.6-30.8l29.7-10.2l10.6,30.8L849.2,126.3z M840.7,96.6l9.5,27.7l26.7-9.2l-9.5-27.7L840.7,96.6
	z"/>
<path class="st1" d="M84.5,699.7l-1.3-0.5c-0.3-0.1-28-10.7-41-34.8c-13-24.1-6.6-53.1-6.6-53.4l0.3-1.3l1.3,0.5
	c0.3,0.1,28,10.7,41,34.8c13,24.1,6.6,53.1,6.6,53.4L84.5,699.7z M44.3,663.3c11,20.4,32.9,30.8,38.4,33.2c1.1-5.9,4.4-30-6.6-50.3
	c-11-20.3-32.9-30.8-38.4-33.2C36.7,618.9,33.4,642.9,44.3,663.3z"/>
<path class="st5" d="M52.2,656c23.3,14,32.3,41.9,32.3,41.9S55.6,703,32.3,689S0,647,0,647S28.8,641.9,52.2,656z"/>
<rect x="21.1" y="25.1" class="st1" width="933" height="2"/>
<circle class="st1" cx="40.2" cy="9.1" r="9.1"/>
<circle class="st1" cx="68.1" cy="9.1" r="9.1"/>
<circle class="st1" cx="96.1" cy="9.1" r="9.1"/>
<rect x="367.5" y="93.5" class="st1" width="213.4" height="2.4"/>
<rect x="367.5" y="110.2" class="st1" width="213.4" height="2.4"/>
<rect x="367.5" y="127" class="st1" width="213.4" height="2.4"/>
</svg>
