<?xml version="1.0" encoding="utf-8"?>
<!-- Generator: Adobe Illustrator 24.0.0, SVG Export Plug-In . SVG Version: 6.00 Build 0)  -->
<svg version="1.1" id="b76d0b57-bb96-4225-9050-c631c36202a0"
	 xmlns="http://www.w3.org/2000/svg" xmlns:xlink="http://www.w3.org/1999/xlink" x="0px" y="0px" viewBox="0 0 1037.8 750.1"
	 style="enable-background:new 0 0 1037.8 750.1;" xml:space="preserve">
<style type="text/css">
	.st0{fill:#3F3D56;}
	.st1{opacity:0.1;enable-background:new    ;}
	.st2{fill:#2F2E41;}
	.st3{fill:#FFB9B9;}
	.st4{fill:#D0CDE1;}
	.st5{fill:#6C63FF;}
	.st6{fill:#17A2B8;}
	.st7{fill:#F2F2F2;}
</style>
<title>artist</title>
<ellipse transform="matrix(1.215733e-03 -1 1 1.215733e-03 123.2426 1576.4908)" class="st0" cx="850.8" cy="726.5" rx="23.5" ry="187"/>
<ellipse transform="matrix(1.215733e-03 -1 1 1.215733e-03 123.2426 1576.4908)" class="st1" cx="850.8" cy="726.5" rx="17.3" ry="138"/>
<path class="st2" d="M788.4,648l3.1,40.9c0,0-22.7,40.3,1.2,39.7c23.9-0.6,25.8-3.1,25.8-3.1l0-12.6l0-27.1l-6.9-41.6L788.4,648z"/>
<path class="st2" d="M883.4,658.2c0,0,5.6,17,1.2,28.3s-6.3,37.8-3.2,38.4s18.3,3.8,18.3,3.8s36.5,12.6,52.2,7.6
	s13.2-12.6,13.2-12.6s-3.8-10.7-15.7-11.4s-39.6-46-40.2-56.1C908.6,646.3,883.4,658.2,883.4,658.2z"/>
<circle class="st2" cx="805.1" cy="79.9" r="56"/>
<path class="st3" d="M785.2,116.1c0,0,5,27.7-10.1,35.2s28.3,22.1,28.3,22.1l18.9-5l12-25.8c0,0-15.1-1.3-11.3-23.9L785.2,116.1z"/>
<path class="st1" d="M785.2,116.1c0,0,5,27.7-10.1,35.2s28.3,22.1,28.3,22.1l18.9-5l12-25.8c0,0-15.1-1.3-11.3-23.9L785.2,116.1z"/>
<path class="st3" d="M727.2,210.5l-1.3,60.4L710,374.1c0,0,0.6,53.5,16.9,56.7s0.1-57.3,0.1-57.3l23.7-85.4l4.8-74.4L727.2,210.5z"
	/>
<circle class="st3" cx="803.2" cy="95" r="35.9"/>
<path class="st4" d="M859.3,274.8c6.3,10.7,4.4,23.3-2.5,23.3c-6.9,0-100.1-11.5-100.1-11.5l5.7-21.4c0,0-5.7-8.8-1.9-14.5
	c3.8-5.7-3.7-23.3-3.7-23.3l-14.4-68.6l7.6-2.4l12.6-3.9l13.9-4.3c0,0,9.4,13.9,32.7,9.5c0,0,14.5,1.9,22.7-17
	c1.8,0,3.5,0.3,5.2,0.7c1.7,0.5,3.4,1.2,4.2,2.5c0.8,1.3,5.2,2.1,10.2,2.7c7.5,0.9,16.2,1.1,16.2,1.1l-7,69.9
	C860.6,217.6,853,264.1,859.3,274.8z"/>
<path class="st4" d="M747.4,158.9l-5,0c0,0-20.2,16.3-17.7,55.4c0,0,1.9,3.8,16.4,6.3c14.5,2.5,20.8-3.8,20.8-3.8L747.4,158.9z"/>
<path class="st2" d="M841.8,204.9c0,0-80.6-5.1-80,4.3c0.6,9.4-5.1,30.8-2.6,34.6s5.6,19.3,1.8,26.3c-2.2,4.2-3.9,8.7-5,13.3
	c0,0-5-1.3-8.8,14.5s-22.7,61-15.2,84.3c7.5,23.3,31.9,171.9,31.9,171.9l16.2,97.6c0,0,27.1,5.1,36.5-5L808,532.2l-6.1-124.6
	c0,0,42,120.9,48.3,124.7l25.7,128.4c0,0,28.9,10.1,39-6.2L903,560.7c0,0-6.9-18.3-4.4-27.7c2.5-9.4-4.4-16.4-4.4-16.4l-25.6-132.9
	c0,0-7.5-15.1-1.2-26.4c6.3-11.3-11.3-63-11.3-63s-11.3-26.5-7.5-41.6C852.4,237.7,841.8,204.9,841.8,204.9z"/>
<path class="st3" d="M886.5,196.2l12.5,71.1c0,0,1.9,10.7-3.8,28.3c-5.7,17.6-27.8,59.8-27.8,59.8l-11.3-20.2l19-64.2l-15.6-74.9
	L886.5,196.2z"/>
<polygon class="st2" points="774.4,205.5 762.7,211.5 749.9,174.6 749.9,156.5 762.5,152.6 764.4,167.7 "/>
<path class="st2" d="M851.4,146.6l-10.3,60.6l-16.4,0l12.2-65.7c1.7,0.5,3.4,1.2,4.2,2.5C842,145.1,846.4,146,851.4,146.6z"/>
<path class="st4" d="M860.1,151.5l7.6-3.8c0,0,32.1,38.4,22.6,54.2c-9.5,15.7-37.1,5.6-37.1,5.6L860.1,151.5z"/>
<circle class="st2" cx="810.8" cy="23.9" r="23.9"/>
<ellipse transform="matrix(1.215733e-03 -1 1 1.215733e-03 743.1031 862.3345)" class="st2" cx="803.2" cy="59.2" rx="18.3" ry="30.8"/>
<circle class="st5" cx="768.4" cy="212.1" r="3.1"/>
<circle class="st5" cx="835.8" cy="212.2" r="3.1"/>
<rect y="79.5" class="st0" width="672" height="514.8"/>
<circle class="st1" cx="336" cy="293.5" r="73"/>
<path class="st1" d="M434,293.5c0,40.3,32.7,73,73,73l0,0v-146C466.7,220.5,434,253.2,434,293.5z"/>
<path class="st1" d="M164,220.5v146c40.3,0,73-32.7,73-73S204.3,220.5,164,220.5z"/>
<circle class="st6" cx="336" cy="284.5" r="73"/>
<path class="st6" d="M434,284.5c0,40.3,32.7,73,73,73l0,0v-146C466.7,211.5,434,244.2,434,284.5L434,284.5z"/>
<path class="st6" d="M164,211.5v146c40.3,0,73-32.7,73-73S204.3,211.5,164,211.5z"/>
<rect x="593" y="563.5" class="st7" width="65" height="17"/>
</svg>
