<?xml version="1.0" encoding="utf-8"?>
<!-- Generator: Adobe Illustrator 24.0.0, SVG Export Plug-In . SVG Version: 6.00 Build 0)  -->
<svg version="1.1" id="abfc9406-9725-4cb2-b46b-8486a730651f"
	 xmlns="http://www.w3.org/2000/svg" xmlns:xlink="http://www.w3.org/1999/xlink" x="0px" y="0px" viewBox="0 0 1171 834.7"
	 style="enable-background:new 0 0 1171 834.7;" xml:space="preserve">
<style type="text/css">
	.st0{fill:#F2F2F2;}
	.st1{fill:#2F2E41;}
	.st2{fill:#FFB8B8;}
	.st3{fill:#17A2B8;}
	.st4{fill:#3F3D56;}
	.st5{fill:#E6E6E6;}
	.st6{fill:#FFFFFF;}
</style>
<title>detailed_analysis</title>
<polygon class="st0" points="1124.1,191.4 652.7,394 720.6,581.4 769.1,715.2 781.3,748.9 890,790.1 893.9,791.6 1007.4,834.7 
	1061.9,811.4 1136.1,779.5 1171,764.5 "/>
<polygon class="st1" points="1136.4,760.2 1136.3,765.1 1136.1,779.5 1061.9,811.4 1011.7,832.9 1009.6,825.9 1007.4,834.7 
	893.9,791.6 892.1,750.1 892.1,750.1 891.8,740.8 1114.1,725.9 1118.4,732.6 1119.3,733.9 "/>
<path class="st2" d="M975.3,318.6c0,0-14.9,53.7-17.9,53.7s28.3,41.8,28.3,41.8l46.3,25.4l16.4-68.6c0,0-14.9-37.3-11.9-56.7
	L975.3,318.6z"/>
<circle class="st2" cx="999.2" cy="284.3" r="55.2"/>
<path class="st3" d="M1006.6,399.2l-44.1-38.3l-26,12.9l-56.7,35.8c0,0,14.9,322.3,7.5,334.2c0,0,16.4,37.3,113.4,14.9
	s122.3-25.4,122.3-25.4l-20.9-196.9l25.4-123.8l-85.2-59.6l-26.7,46.1L1006.6,399.2z"/>
<path class="st2" d="M842.5,524.5c0,0-22.4,70.1-6,77.6s29.8,4.5,29.8,4.5l25.4-61.2L842.5,524.5z"/>
<path class="st2" d="M1152.9,512.5l13.4,62.7V702c0,0-19.4,80.6-34.3,59.7s-14.6-27.5-14.6-27.5l19.1-29.2l-9-119.4l-23.8-56.9
	L1152.9,512.5z"/>
<path class="st1" d="M1051.4,229.1c0,0-17.9-38.8-52.2-29.8S945.5,221.6,944,235s0.7,33.6,0.7,33.6s3.7-27.6,27.6-21.6
	s61.2,1.5,61.2,1.5l6,53.7c0,0,6.7-9.7,14.2-3.7S1075.3,241,1051.4,229.1z"/>
<polygon class="st4" points="1104.1,524.9 1109.5,552.9 1162.4,538.9 1152.7,513 "/>
<polygon class="st4" points="841.5,524 833.1,551.3 886.4,563.8 890,536.3 "/>
<path class="st3" d="M1093.2,409.6l34.3,3c0,0,38.8,105.9,34.3,108.9s-58.2,20.9-65.6,16.4S1093.2,409.6,1093.2,409.6z"/>
<path class="st3" d="M891.8,412.6l-11.9-3c0,0-22.4,28.3-29.8,61.2c-7.5,32.8-17.9,65.6-11.9,65.6s59.7,20.9,59.7,20.9L891.8,412.6z
	"/>
<circle class="st4" cx="1012.4" cy="409.4" r="10.8"/>
<path class="st5" d="M1095.7,600.2l-115.3,36.3l-47-149.2c44.4-6.2,82.8-18.3,115.3-36.3C1054.7,501.9,1070,551.7,1095.7,600.2z"/>
<path class="st6" d="M1084.9,616.4l-115.3,36.3l-47-149.2c44.4-6.2,82.8-18.3,115.3-36.3C1043.9,518.1,1059.2,567.8,1084.9,616.4z"
	/>
<path class="st2" d="M850,558.8c0,0-17.9,32.8-13.4,43.3s41.8,16.4,46.3,16.4s58.2-11.9,58.2-11.9s82.1-38.8,58.2-58.2
	s-68.6,26.9-68.6,26.9h-35.8l-19.4-13.4L850,558.8z"/>
<rect x="1" y="134.8" class="st0" width="195" height="87.2"/>
<rect x="676" y="418" class="st4" width="34" height="30"/>
<rect x="608" y="418" class="st4" width="34" height="30"/>
<rect x="744" y="352" class="st3" width="34" height="34"/>
<rect x="710" y="386" class="st4" width="34" height="32"/>
<rect x="642" y="386" class="st4" width="34" height="32"/>
<rect x="239" y="446" class="st3" width="34" height="30"/>
<rect x="545" y="414" class="st4" width="34" height="32"/>
<rect x="341" y="414" class="st4" width="34" height="32"/>
<rect x="307" y="380" class="st4" width="34" height="34"/>
<rect x="477" y="414" class="st4" width="34" height="32"/>
<rect x="443" y="380" class="st4" width="34" height="34"/>
<rect x="409" y="414" class="st4" width="34" height="32"/>
<rect x="273" y="414" class="st4" width="34" height="32"/>
<rect x="511" y="380" class="st3" width="34" height="34"/>
<path class="st4" d="M664.7,327.5l-17.7-18.9l18.9-17.7l17.7,18.9L664.7,327.5z M649.9,308.7l14.9,16l16-14.9l-14.9-16L649.9,308.7z
	"/>
<path class="st4" d="M425.7,249.6h-25.9v-25.9h25.9V249.6z M401.8,247.6h21.9v-21.9h-21.9V247.6z"/>
<path class="st4" d="M906.7,199.6h-25.9v-25.9h25.9V199.6z M882.8,197.6h21.9v-21.9h-21.9V197.6z"/>
<path class="st4" d="M254.4,464.1l-1.5-1.5c7-8,12.4-17.3,15.7-27.4c5.2-15.7,7.7-40.4-9.7-69.3c-17.8-29.6-18.6-53.6-16.2-68.5
	c2.7-16.3,9.5-25.4,9.8-25.7l1.7,1.3c-0.1,0.1-6.9,9.2-9.4,24.9c-2.4,14.6-1.5,38,15.9,66.9c17.9,29.6,15.2,55,9.9,71.2
	C264.8,453.4,254.9,463.6,254.4,464.1z"/>
<path class="st4" d="M524.4,396.1l-1.5-1.5c7-8,12.4-17.3,15.7-27.4c5.2-15.7,7.7-40.4-9.7-69.3c-17.8-29.6-18.7-53.6-16.2-68.5
	c2.7-16.3,9.5-25.4,9.8-25.7l1.7,1.3c-0.1,0.1-6.9,9.2-9.4,24.9c-2.4,14.6-1.5,38,15.9,66.9c17.9,29.6,15.2,55,9.9,71.2
	C534.8,385.4,524.9,395.6,524.4,396.1z"/>
<path class="st4" d="M759.4,370.1l-1.5-1.5c7-8,12.4-17.3,15.7-27.4c5.2-15.7,7.7-40.4-9.7-69.3c-17.8-29.6-18.7-53.6-16.2-68.5
	c2.7-16.3,9.5-25.4,9.8-25.7l1.7,1.3c-0.1,0.1-6.9,9.2-9.4,24.9c-2.4,14.6-1.5,38,15.9,66.9c17.9,29.6,15.2,55,9.9,71.2
	C769.8,359.4,759.9,369.6,759.4,370.1z"/>
<rect x="51.4" y="162.3" class="st4" width="94.1" height="2.1"/>
<rect x="51.4" y="177.3" class="st4" width="94.1" height="2.1"/>
<rect x="51.4" y="192.3" class="st4" width="94.1" height="2.1"/>
<rect x="578.4" y="19.3" class="st4" width="94.1" height="2.1"/>
<rect x="578.4" y="34.3" class="st4" width="94.1" height="2.1"/>
<rect x="578.4" y="49.3" class="st4" width="94.1" height="2.1"/>
<rect x="799.4" y="351.3" class="st4" width="94.1" height="2.1"/>
<rect x="799.4" y="366.3" class="st4" width="94.1" height="2.1"/>
<rect x="799.4" y="381.3" class="st4" width="94.1" height="2.1"/>
<rect x="208.4" y="501.3" class="st4" width="94.1" height="2.1"/>
<rect x="208.4" y="516.3" class="st4" width="94.1" height="2.1"/>
<rect x="208.4" y="531.3" class="st4" width="94.1" height="2.1"/>
<path class="st1" d="M137.9,110.6c16.3-36.5,40.8-60.5,72.8-71.3c23.8-8.1,51.4-8.8,81.9-2.3c22.5,4.9,44.1,13.3,64,24.8
	c105.9,61.5,171.3,62,207.6,51.6c39.8-11.4,54.3-38,54.5-38.3l1.8,0.9c-0.1,0.3-15,27.6-55.6,39.3c-23.4,6.7-50.7,7-81.2,0.8
	c-38-7.7-81-25.4-128-52.6c-19.7-11.5-41.1-19.8-63.4-24.6c-50-10.7-117.1-6.9-152.4,72.4L137.9,110.6z"/>
<circle class="st4" cx="256" cy="237" r="36"/>
<circle class="st4" cx="528" cy="174" r="36"/>
<circle class="st4" cx="763" cy="142" r="36"/>
<path class="st4" d="M223,223H0V109h223V223z M2,221h219V111H2V221z"/>
<rect x="282" y="59.8" class="st0" width="195" height="87.2"/>
<rect x="332.4" y="87.3" class="st4" width="94.1" height="2.1"/>
<rect x="332.4" y="102.3" class="st4" width="94.1" height="2.1"/>
<rect x="329.4" y="114.3" class="st4" width="94.1" height="2.1"/>
<path class="st4" d="M504,148H281V34h223V148z M283,146h219V36H283V146z"/>
<rect x="785" y="25.8" class="st0" width="195" height="87.2"/>
<rect x="835.4" y="53.3" class="st4" width="94.1" height="2.1"/>
<rect x="835.4" y="68.3" class="st4" width="94.1" height="2.1"/>
<rect x="835.4" y="83.3" class="st4" width="94.1" height="2.1"/>
<path class="st4" d="M1007,114H784V0h223V114z M786,112h219V2H786V112z"/>
</svg>
